<?xml version="1.0" standalone="no"?>
<!DOCTYPE svg PUBLIC "-//W3C//DTD SVG 20010904//EN"
 "http://www.w3.org/TR/2001/REC-SVG-20010904/DTD/svg10.dtd">
<svg version="1.0" xmlns="http://www.w3.org/2000/svg"
 width="1280.000000pt" height="954.000000pt" viewBox="0 0 1280.000000 954.000000"
 preserveAspectRatio="xMidYMid meet">
<metadata>
Created by potrace 1.15, written by Peter Selinger 2001-2017
</metadata>
<g transform="translate(0.000000,954.000000) scale(0.100000,-0.100000)"
fill="#FFFFFF" stroke="none">
<path d="M4400 9534 c-613 -33 -1154 -123 -1625 -269 -501 -156 -789 -318
-941 -531 -48 -67 -104 -179 -104 -207 0 -20 -56 -122 -255 -467 -433 -751
-716 -1409 -970 -2250 -211 -699 -306 -1212 -364 -1971 -11 -140 -23 -262 -27
-272 -3 -9 -2 -17 3 -17 5 0 17 -6 26 -13 15 -10 16 -19 7 -67 -6 -30 -31
-246 -56 -480 -26 -250 -49 -427 -56 -431 -8 -5 -9 -85 -6 -273 3 -151 2 -263
-3 -260 -24 14 -27 -10 -5 -39 18 -24 25 -50 30 -108 37 -432 173 -891 360
-1216 35 -61 67 -107 75 -105 10 2 11 -17 5 -90 -3 -51 -11 -104 -16 -117 -5
-13 -5 -27 -1 -31 10 -9 241 -55 523 -105 577 -102 898 -144 1440 -187 271
-22 333 -23 1230 -22 l945 1 335 37 c337 37 841 99 1097 136 1295 185 1923
306 2150 416 110 53 126 86 138 289 9 165 9 165 54 165 34 0 39 -3 47 -32 8
-26 16 -34 44 -39 23 -5 50 -24 82 -58 26 -28 56 -51 66 -51 20 0 223 45 562
124 259 61 465 109 879 205 230 54 348 85 353 95 5 9 39 24 76 35 187 54 2253
571 2283 571 l21 0 -6 537 c-34 2831 -105 4161 -258 4842 -53 236 -139 479
-239 672 l-40 76 -162 42 c-164 42 -573 151 -1242 332 -667 181 -1544 419
-1875 509 -179 49 -494 134 -700 190 -206 56 -447 121 -535 145 -318 87 -511
130 -685 155 -63 8 -416 37 -1120 90 -369 28 -678 41 -1055 44 -231 2 -449 2
-485 0z m1430 -53 c151 -12 381 -30 510 -41 129 -11 240 -20 247 -20 7 0 13
-4 13 -10 0 -5 -19 -10 -42 -10 -134 -1 -388 -98 -548 -211 -94 -66 -269 -239
-346 -343 l-59 -79 -145 7 c-80 4 -203 11 -275 16 -233 17 -1171 24 -1381 11
-583 -37 -1062 -102 -1738 -236 -154 -30 -288 -55 -298 -55 -10 0 -18 7 -18
17 0 30 73 162 126 229 98 122 201 198 409 299 377 184 917 328 1529 410 301
40 387 43 1091 40 553 -2 691 -6 925 -24z m1285 -110 c178 -30 307 -60 645
-151 168 -45 328 -88 356 -96 28 -7 125 -33 215 -58 219 -60 1410 -383 2209
-599 355 -97 877 -237 1160 -312 283 -75 521 -138 527 -140 19 -6 46 -55 107
-190 89 -198 170 -434 154 -450 -6 -6 -222 39 -1438 305 -1912 417 -3089 679
-3111 691 -11 5 -21 29 -28 61 -68 361 -100 483 -157 608 -42 89 -117 207
-122 191 -2 -6 12 -32 31 -59 80 -109 140 -266 187 -489 51 -244 70 -390 120
-918 32 -349 44 -603 60 -1265 6 -239 15 -609 20 -822 6 -214 14 -562 20 -775
5 -214 15 -576 21 -806 8 -324 8 -421 -1 -433 -10 -11 -8 -14 11 -14 43 0 47
10 41 100 -4 63 -8 77 -13 55 -4 -19 -7 8 -8 70 -1 55 -6 260 -11 455 -5 195
-16 632 -25 970 -8 338 -17 725 -21 860 -3 135 -11 452 -18 705 -7 253 -10
464 -6 468 4 5 54 6 110 2 91 -7 102 -10 110 -29 14 -38 46 -506 75 -1081 39
-808 40 -863 40 -2475 0 -1471 -6 -1969 -24 -1998 -4 -6 -58 -19 -121 -27
-688 -94 -1532 -267 -1980 -405 -505 -156 -820 -326 -1200 -646 -132 -111
-131 -111 -380 -128 -118 -8 -323 -20 -455 -26 -132 -6 -283 -15 -335 -20
-254 -26 -613 -35 -1315 -35 -546 0 -769 3 -850 13 -60 7 -170 20 -243 28
-137 15 -438 54 -766 99 -201 27 -205 26 -206 -20 -1 -30 -38 33 -130 220
-147 298 -255 688 -286 1030 l-7 80 93 -115 c116 -142 325 -358 445 -458 240
-202 508 -335 762 -378 139 -24 361 -15 500 20 376 94 687 294 1243 801 374
340 485 428 632 500 l87 42 84 -27 c108 -35 176 -72 234 -129 93 -92 131 -226
112 -396 -13 -125 -47 -250 -145 -540 -47 -137 -96 -289 -109 -336 -48 -169
-70 -359 -42 -359 8 0 13 23 15 73 5 118 38 245 148 577 128 383 153 481 161
625 19 356 -186 523 -695 567 -122 10 -142 14 -137 27 43 109 311 920 343
1036 77 278 688 2406 808 2812 329 1118 620 1868 907 2345 98 162 142 225 235
332 220 253 467 401 742 446 41 6 82 13 90 15 46 12 416 -5 525 -24z m1049
-1072 c372 -79 1556 -338 3026 -664 900 -199 1320 -297 1320 -308 0 -1 11 -58
24 -127 32 -163 76 -458 76 -510 0 -34 -3 -40 -21 -40 -43 0 -1140 174 -1329
211 -25 5 -162 27 -305 49 -452 70 -696 109 -840 135 -146 26 -868 141 -920
147 l-30 3 -3 -60 c-2 -33 6 -235 18 -450 90 -1694 94 -1797 93 -3105 0 -689
-5 -1294 -12 -1480 -17 -469 -31 -773 -37 -792 -6 -22 -32 -24 -40 -4 -3 8 3
219 13 468 15 382 18 663 18 1798 0 1250 -2 1378 -23 1815 -50 1055 -88 1742
-98 1792 -6 31 -6 31 -118 52 -312 57 -864 142 -902 139 -34 -2 -44 0 -44 12
0 20 -77 848 -85 913 -5 40 -3 47 11 47 10 0 103 -18 208 -41z m1835 -1250
c59 -12 53 9 81 -279 104 -1063 133 -1630 134 -2574 l1 -719 85 6 c774 56
1055 80 1062 90 11 17 9 942 -2 1237 -9 239 -29 489 -110 1395 -21 242 -42
486 -46 543 l-7 102 27 0 c38 0 63 -15 69 -42 4 -13 18 -187 32 -388 14 -201
39 -547 55 -770 64 -881 80 -1231 80 -1789 l0 -324 48 7 c82 10 936 106 951
106 11 0 12 123 8 758 -6 933 -21 1184 -112 1907 -24 192 -42 351 -39 354 6 7
260 -36 282 -48 23 -12 27 -34 47 -252 44 -491 79 -1323 110 -2576 l6 -241
-38 -6 c-49 -8 -317 -41 -498 -61 -77 -9 -176 -21 -220 -26 -44 -5 -120 -14
-170 -19 -49 -5 -169 -19 -265 -30 -96 -11 -218 -25 -270 -31 -202 -22 -271
-29 -763 -84 -280 -32 -510 -55 -513 -52 -3 2 -9 311 -14 685 -14 976 -28
1347 -95 2552 -14 239 -25 468 -25 507 l0 73 30 0 c16 0 51 -5 79 -11z m2770
-4206 c0 -182 -3 -334 -8 -337 -12 -8 -355 -66 -386 -66 -29 0 -32 9 -43 130
-6 67 -11 84 -22 82 -80 -19 -134 -27 -1670 -268 -157 -24 -295 -48 -307 -53
-19 -9 -21 -18 -25 -115 -1 -57 -5 -107 -8 -110 -13 -12 -302 -58 -311 -49 -7
7 -7 111 0 294 6 156 13 382 17 501 l6 218 32 5 c28 4 354 38 2196 227 305 31
507 56 510 62 10 22 18 -195 19 -521z m-12435 446 c32 -25 56 -70 55 -101 -1
-17 -3 -15 -11 12 -23 80 -75 115 -127 84 -40 -24 -53 -50 -67 -129 l-12 -70
-1 53 c-1 61 24 119 65 151 34 27 64 27 98 0z m264 -39 c26 -26 51 -94 39
-106 -3 -3 -8 11 -11 30 -7 39 -55 96 -81 96 -9 0 -29 -13 -44 -28 -52 -52
-52 -233 0 -288 44 -47 97 -18 125 67 l14 44 -4 -39 c-6 -47 -29 -83 -62 -98
-39 -18 -74 0 -102 52 -21 40 -23 55 -20 130 4 91 23 140 62 159 35 16 53 12
84 -19z m2660 -54 c21 -14 49 -45 61 -67 61 -108 -28 -249 -157 -249 -50 0
-86 17 -124 57 -56 59 -64 135 -19 204 56 88 158 112 239 55z m-1936 -13 c23
-21 23 -35 -3 -84 -28 -56 -35 -43 -8 15 13 25 20 48 17 52 -4 3 -24 12 -45
19 -46 16 -59 10 -127 -54 l-49 -46 47 57 c26 31 53 59 59 62 21 9 91 -4 109
-21z m1430 -19 c37 -19 78 -92 78 -138 0 -117 -131 -204 -223 -147 -19 12 -42
32 -51 46 -24 37 -19 40 10 5 66 -78 151 -79 217 -1 52 62 44 155 -17 209 -88
77 -196 33 -232 -95 l-14 -48 4 44 c6 58 51 122 96 138 39 14 90 9 132 -13z
m-2377 -114 c-17 -33 -68 -70 -98 -70 -18 0 -97 73 -97 90 0 5 19 -11 41 -35
23 -25 51 -45 61 -45 28 0 98 72 99 101 1 16 3 18 6 7 2 -9 -3 -31 -12 -48z
m1339 45 c6 -18 -28 -133 -56 -189 -11 -21 -15 -37 -10 -35 5 2 58 46 116 98
121 108 153 131 181 131 37 0 45 -20 44 -109 -1 -97 -5 -97 -14 1 -3 36 -12
73 -18 82 -11 15 -17 14 -57 -13 -25 -16 -94 -71 -153 -120 -59 -50 -110 -91
-112 -91 -7 0 4 41 29 103 31 78 41 133 27 141 -6 4 -47 0 -92 -9 -112 -21
-144 -17 -39 5 109 23 146 24 154 5z m-251 -32 c-7 -2 -19 -2 -25 0 -7 3 -2 5
12 5 14 0 19 -2 13 -5z m-558 -42 c-38 -3 -76 -10 -83 -14 -19 -13 3 -36 55
-58 50 -21 56 -31 12 -19 -67 20 -102 57 -79 85 9 11 32 15 89 13 l76 -1 -70
-6z m606 -40 c-17 -23 -31 -31 -72 -36 -60 -8 -78 0 -20 10 22 4 55 17 73 30
43 30 43 30 19 -4z m48 -71 c-6 -24 -14 -85 -19 -135 l-9 -90 4 105 c1 58 8
120 15 138 17 45 21 36 9 -18z m-339 -19 c-8 -5 -26 -11 -40 -15 -21 -5 -20
-3 5 9 32 15 60 20 35 6z m646 -3 c4 -7 3 -8 -4 -4 -7 4 -12 3 -12 -3 0 -5 5
-13 10 -16 6 -3 10 -14 10 -24 0 -53 34 -128 80 -173 46 -47 65 -54 125 -48
25 2 65 27 65 41 0 5 -10 14 -22 19 -22 8 -22 9 5 9 40 1 47 -27 13 -56 -15
-12 -38 -26 -51 -29 -34 -8 -129 22 -156 50 -13 14 -38 67 -55 118 -17 51 -35
101 -39 111 -8 20 19 25 31 5z m-970 -60 c-100 -140 -139 -305 -85 -359 19
-19 29 -21 81 -15 73 7 87 15 63 33 -14 9 -15 13 -4 13 22 0 42 -17 35 -29 -9
-15 -73 -31 -124 -31 -61 0 -92 32 -92 97 0 89 40 197 102 276 32 40 51 52 24
15z m884 18 c0 -2 -24 -23 -52 -47 l-53 -43 45 47 c39 41 60 56 60 43z m-710
-20 c0 -2 -8 -10 -17 -17 -16 -13 -17 -12 -4 4 13 16 21 21 21 13z m-742 -39
c46 -49 47 -184 1 -233 -50 -54 -107 -8 -116 93 -6 66 8 123 35 145 14 11 14
9 -1 -15 -10 -16 -21 -53 -24 -83 -11 -109 47 -188 100 -135 18 18 22 35 25
99 3 87 -17 137 -60 145 -21 4 -21 4 -2 6 11 0 30 -9 42 -22z m1712 -59 l23
-33 -26 24 c-15 14 -27 28 -27 33 0 14 5 9 30 -24z m991 6 c40 -20 89 -99 89
-141 0 -36 -22 -97 -38 -107 -6 -3 -2 12 9 33 24 51 24 82 -1 130 -27 55 -74
91 -116 91 -74 0 -143 -111 -123 -198 18 -83 128 -135 187 -89 7 5 15 8 18 5
6 -7 -60 -38 -81 -38 -34 0 -87 34 -112 71 -84 127 42 309 168 243z m-2426
-28 c38 -58 27 -139 -23 -172 -25 -16 -26 -16 -54 15 -15 17 -28 37 -28 43 0
7 13 -3 29 -22 25 -29 32 -33 48 -24 24 14 45 81 38 116 -4 15 -18 37 -32 48
-19 14 -21 20 -10 20 9 0 24 -11 32 -24z m993 -41 c-13 -19 -28 -35 -35 -35
-13 0 -28 38 -19 47 3 4 6 -1 6 -10 0 -24 13 -21 40 8 32 34 34 31 8 -10z
m926 -36 c14 -7 27 -18 30 -25 3 -9 -6 -6 -23 7 l-29 22 -31 -22 c-29 -21 -35
-33 -44 -91 -3 -16 -5 -12 -6 14 -1 31 5 44 33 72 39 39 36 38 70 23z m-1597
-76 c-3 -10 -5 -2 -5 17 0 19 2 27 5 18 2 -10 2 -26 0 -35z m-741 -109 c223
-172 410 -247 719 -290 156 -22 602 -24 840 -5 352 28 871 95 1400 180 132 21
241 38 243 36 9 -8 -297 -281 -473 -422 -434 -346 -826 -555 -1190 -634 -146
-32 -393 -32 -520 -1 -352 88 -648 334 -901 748 -64 106 -224 422 -224 443 0
6 -4 11 -10 11 -5 0 -10 10 -10 23 l1 22 17 -20 c9 -12 58 -52 108 -91z m2290
-13 c-5 -2 -18 6 -28 19 -28 34 -21 42 10 12 15 -15 23 -29 18 -31z m-2406 28
c0 -5 31 -74 70 -152 279 -568 613 -900 1020 -1012 117 -33 348 -45 481 -25
482 70 1024 387 1658 970 l133 123 132 -6 c147 -7 216 -16 216 -27 0 -4 -10
-10 -23 -14 -40 -10 -195 -113 -300 -199 -56 -47 -187 -162 -292 -257 -104
-95 -235 -212 -290 -260 -389 -339 -728 -533 -1045 -601 -136 -29 -364 -31
-485 -5 -423 92 -806 376 -1223 908 l-52 66 -10 219 c-12 273 -12 283 0 283 6
0 10 -5 10 -11z m2480 -14 c-7 -8 -17 -15 -23 -15 -6 0 -2 7 9 15 25 19 30 19
14 0z"/>
<path d="M6083 8638 c-16 -18 -51 -62 -76 -98 -58 -83 -361 -613 -447 -783
-77 -152 -79 -148 62 -166 51 -7 94 -14 96 -15 2 -2 -64 -150 -146 -327 -351
-761 -524 -1183 -675 -1644 -185 -568 -267 -928 -407 -1795 -23 -140 -46 -260
-51 -267 -6 -6 -23 -14 -37 -17 -42 -7 356 3 928 24 533 20 1724 63 2125 77
199 7 211 8 127 14 -51 4 -95 9 -97 11 -8 8 -82 2507 -101 3427 l-7 324 -30
56 c-49 94 -189 300 -274 406 -97 120 -290 312 -429 428 -192 160 -490 377
-517 377 -7 0 -27 -15 -44 -32z"/>
<path d="M7469 3615 c-9 -9 -503 -31 -1469 -65 -1312 -47 -1795 -70 -1810 -87
-35 -39 -400 -953 -400 -1001 0 -13 -5 -33 -12 -45 -10 -20 -10 -21 5 -9 9 8
21 11 27 7 5 -3 49 1 98 10 123 23 1573 302 2027 390 209 41 581 112 826 159
246 48 470 94 498 103 62 20 110 68 171 174 72 122 99 202 100 292 l0 77 -28
0 c-16 0 -31 -2 -33 -5z"/>
<path d="M3116 3210 c-61 -19 -116 -95 -116 -160 0 -43 33 -104 71 -131 45
-32 115 -36 166 -10 64 32 106 119 89 185 -9 37 -56 87 -101 107 -44 20 -65
22 -109 9z"/>
</g>
<text x="50" y="50" font-family="Arial" font-size="24" fill="black">SILVERLINE</text>
</svg>
